<svg width="24" height="24" viewBox="0 0 24 24" xmlns="http://www.w3.org/2000/svg">
  <!-- Large teal hand (outer) - fills most of the space -->
  <path d="M2 4 L6 2 L10 2 L14 2 L18 4 L20 8 L20 16 L18 20 L14 22 L10 22 L6 22 L2 20 L0 16 L0 8 L2 4 Z" fill="#0F7377"/>
  
  <!-- Large hand fingers - very prominent -->
  <rect x="1" y="2" width="3" height="6" fill="#0F7377"/>
  <rect x="4" y="1" width="3" height="7" fill="#0F7377"/>
  <rect x="7" y="1" width="3" height="7" fill="#0F7377"/>
  <rect x="10" y="1" width="3" height="7" fill="#0F7377"/>
  <rect x="13" y="1" width="3" height="7" fill="#0F7377"/>
  <rect x="16" y="2" width="3" height="6" fill="#0F7377"/>
  
  <!-- Small black hand (inner) - clearly visible -->
  <path d="M8 8 L6 9 L5 11 L5 15 L6 17 L8 18 L10 17 L11 15 L11 11 L10 9 L8 8 Z" fill="#000000"/>
  
  <!-- Small hand fingers - clearly visible -->
  <rect x="5" y="10" width="1" height="3" fill="#000000"/>
  <rect x="6" y="9" width="1" height="4" fill="#000000"/>
  <rect x="7" y="9" width="1" height="4" fill="#000000"/>
  <rect x="8" y="9" width="1" height="4" fill="#000000"/>
  <rect x="9" y="9" width="1" height="4" fill="#000000"/>
  <rect x="10" y="10" width="1" height="3" fill="#000000"/>
</svg>
