<svg width="120" height="120" viewBox="0 0 120 120" fill="none" xmlns="http://www.w3.org/2000/svg">
  <!-- Background circle -->
  <circle cx="60" cy="60" r="58" fill="#0F7377" stroke="#0F7377" stroke-width="2"/>
  
  <!-- Large teal hand (outer) -->
  <path d="M60 20 C60 20, 45 25, 40 35 C35 45, 35 55, 40 65 C45 75, 55 80, 60 80 C65 80, 75 75, 80 65 C85 55, 85 45, 80 35 C75 25, 65 20, 60 20 Z" fill="#0F7377"/>
  
  <!-- Large hand fingers -->
  <path d="M35 45 C30 40, 25 35, 25 30 C25 25, 30 20, 35 25 C40 30, 40 40, 35 45 Z" fill="#0F7377"/>
  <path d="M45 40 C40 35, 35 30, 35 25 C35 20, 40 15, 45 20 C50 25, 50 35, 45 40 Z" fill="#0F7377"/>
  <path d="M55 35 C50 30, 45 25, 45 20 C45 15, 50 10, 55 15 C60 20, 60 30, 55 35 Z" fill="#0F7377"/>
  <path d="M65 35 C60 30, 55 25, 55 20 C55 15, 60 10, 65 15 C70 20, 70 30, 65 35 Z" fill="#0F7377"/>
  <path d="M75 40 C70 35, 65 30, 65 25 C65 20, 70 15, 75 20 C80 25, 80 35, 75 40 Z" fill="#0F7377"/>
  <path d="M85 45 C80 40, 75 35, 75 30 C75 25, 80 20, 85 25 C90 30, 90 40, 85 45 Z" fill="#0F7377"/>
  
  <!-- Small black hand (inner) -->
  <path d="M60 35 C60 35, 50 38, 47 45 C44 52, 44 58, 47 65 C50 72, 58 75, 60 75 C62 75, 70 72, 73 65 C76 58, 76 52, 73 45 C70 38, 60 35, 60 35 Z" fill="#000000"/>
  
  <!-- Small hand fingers -->
  <path d="M42 52 C40 50, 38 48, 38 46 C38 44, 40 42, 42 44 C44 46, 44 50, 42 52 Z" fill="#000000"/>
  <path d="M48 48 C46 46, 44 44, 44 42 C44 40, 46 38, 48 40 C50 42, 50 46, 48 48 Z" fill="#000000"/>
  <path d="M54 44 C52 42, 50 40, 50 38 C50 36, 52 34, 54 36 C56 38, 56 42, 54 44 Z" fill="#000000"/>
  <path d="M60 44 C58 42, 56 40, 56 38 C56 36, 58 34, 60 36 C62 38, 62 42, 60 44 Z" fill="#000000"/>
  <path d="M66 44 C64 42, 62 40, 62 38 C62 36, 64 34, 66 36 C68 38, 68 42, 66 44 Z" fill="#000000"/>
  <path d="M72 48 C70 46, 68 44, 68 42 C68 40, 70 38, 72 40 C74 42, 74 46, 72 48 Z" fill="#000000"/>
  <path d="M78 52 C76 50, 74 48, 74 46 C74 44, 76 42, 78 44 C80 46, 80 50, 78 52 Z" fill="#000000"/>
  
  <!-- GrowthLab text -->
  <text x="60" y="105" text-anchor="middle" font-family="Arial, sans-serif" font-size="12" font-weight="bold" fill="#0F7377">GrowthLab</text>
</svg>
